<mxfile host="app.diagrams.net" agent="Mozilla/5.0 (Windows NT 10.0; Win64; x64) AppleWebKit/537.36 (KHTML, like Gecko) Chrome/127.0.0.0 Safari/537.36" version="24.7.10">
  <diagram name="PÃ¡gina-1" id="PIzavfFGnauk4XldSr-T">
    <mxGraphModel dx="1434" dy="772" grid="1" gridSize="10" guides="1" tooltips="1" connect="1" arrows="1" fold="1" page="1" pageScale="1" pageWidth="827" pageHeight="1169" math="0" shadow="0">
      <root>
        <mxCell id="0" />
        <mxCell id="1" parent="0" />
        <mxCell id="TEDYL3IKca09mq5Zd89h-28" style="edgeStyle=orthogonalEdgeStyle;rounded=0;orthogonalLoop=1;jettySize=auto;html=1;entryX=0;entryY=0.5;entryDx=0;entryDy=0;endArrow=none;endFill=0;" edge="1" parent="1" source="TEDYL3IKca09mq5Zd89h-18" target="TEDYL3IKca09mq5Zd89h-21">
          <mxGeometry relative="1" as="geometry" />
        </mxCell>
        <mxCell id="TEDYL3IKca09mq5Zd89h-18" value="Cliente" style="whiteSpace=wrap;html=1;align=center;" vertex="1" parent="1">
          <mxGeometry x="40" y="100" width="100" height="40" as="geometry" />
        </mxCell>
        <mxCell id="TEDYL3IKca09mq5Zd89h-19" value="Produto" style="whiteSpace=wrap;html=1;align=center;" vertex="1" parent="1">
          <mxGeometry x="650" y="100" width="100" height="40" as="geometry" />
        </mxCell>
        <mxCell id="TEDYL3IKca09mq5Zd89h-29" style="edgeStyle=orthogonalEdgeStyle;rounded=0;orthogonalLoop=1;jettySize=auto;html=1;entryX=0;entryY=0.5;entryDx=0;entryDy=0;endArrow=none;endFill=0;" edge="1" parent="1" source="TEDYL3IKca09mq5Zd89h-20" target="TEDYL3IKca09mq5Zd89h-22">
          <mxGeometry relative="1" as="geometry" />
        </mxCell>
        <mxCell id="TEDYL3IKca09mq5Zd89h-20" value="Encomenda" style="whiteSpace=wrap;html=1;align=center;" vertex="1" parent="1">
          <mxGeometry x="330" y="100" width="100" height="40" as="geometry" />
        </mxCell>
        <mxCell id="TEDYL3IKca09mq5Zd89h-27" style="edgeStyle=orthogonalEdgeStyle;rounded=0;orthogonalLoop=1;jettySize=auto;html=1;endArrow=none;endFill=0;" edge="1" parent="1" source="TEDYL3IKca09mq5Zd89h-21" target="TEDYL3IKca09mq5Zd89h-20">
          <mxGeometry relative="1" as="geometry" />
        </mxCell>
        <mxCell id="TEDYL3IKca09mq5Zd89h-21" value="Faz" style="shape=rhombus;perimeter=rhombusPerimeter;whiteSpace=wrap;html=1;align=center;" vertex="1" parent="1">
          <mxGeometry x="180" y="90" width="120" height="60" as="geometry" />
        </mxCell>
        <mxCell id="TEDYL3IKca09mq5Zd89h-30" style="edgeStyle=orthogonalEdgeStyle;rounded=0;orthogonalLoop=1;jettySize=auto;html=1;entryX=0;entryY=0.5;entryDx=0;entryDy=0;endArrow=none;endFill=0;" edge="1" parent="1" source="TEDYL3IKca09mq5Zd89h-22" target="TEDYL3IKca09mq5Zd89h-19">
          <mxGeometry relative="1" as="geometry" />
        </mxCell>
        <mxCell id="TEDYL3IKca09mq5Zd89h-22" value="Pertence" style="shape=rhombus;perimeter=rhombusPerimeter;whiteSpace=wrap;html=1;align=center;" vertex="1" parent="1">
          <mxGeometry x="480" y="90" width="120" height="60" as="geometry" />
        </mxCell>
      </root>
    </mxGraphModel>
  </diagram>
</mxfile>
